<svg height="410pt" viewBox="0 -84 410 410" width="410pt" xmlns="http://www.w3.org/2000/svg"><path d="m20 179.117188h370c8.285156 0 15 6.714843 15 15v28.015624c0 8.285157-6.714844 15-15 15h-370c-8.285156 0-15-6.714843-15-15v-28.015624c0-8.285157 6.714844-15 15-15zm0 0" fill="#fff"/><path d="m137 179.125h-117c-8.28125 0-14.996094 6.710938-15 14.992188v28c-.003906 8.285156 6.710938 15.007812 15 15.007812h117zm0 0" fill="#ffd6a2"/><path d="m390 179.125h-29v58h29c8.285156 0 15-6.714844 15-15v-28c0-8.285156-6.714844-15-15-15zm0 0" fill="#ff5e51"/><g fill="#39000c"><path d="m390 174.117188h-370c-11.039062.011718-19.9882812 8.957031-20 20v28c.0117188 11.039062 8.960938 19.984374 20 20h57.664062c2.761719 0 5-2.238282 5-5 0-2.761719-2.238281-5-5-5h-57.664062c-5.523438 0-10-4.476563-10-10v-28c0-5.523438 4.476562-10 10-10h112v48h-25.667969c-2.761719 0-5 2.238281-5 5 0 2.761718 2.238281 5 5 5h283.667969c11.039062-.015626 19.988281-8.960938 20-20v-28c-.011719-11.042969-8.960938-19.988282-20-20zm10 48c0 5.523437-4.476562 10-10 10h-24v-28.992188c0-2.761719-2.238281-5-5-5s-5 2.238281-5 5v29.015625h-214v-48h248c5.523438 0 10 4.476563 10 10zm0 0"/><path d="m275.648438 24.816406c-2.699219.578125-4.421876 3.230469-3.847657 5.933594 2.640625 12.371094 10.640625 29.824219 33.761719 42.730469 43.742188 24.398437 63.011719 42.238281 66.515625 61.527343.496094 2.71875 3.097656 4.519532 5.816406 4.027344 2.714844-.496094 4.519531-3.097656 4.027344-5.816406-4.109375-22.585938-24.800781-42.421875-71.484375-68.46875-15.941406-8.898438-25.648438-21.039062-28.859375-36.089844-.578125-2.695312-3.230469-4.414062-5.929687-3.84375zm0 0"/><path d="m275.273438 15.855469c.207031.027343.417968.042969.628906.039062 2.515625-.003906 4.636718-1.875 4.953125-4.371093.195312-1.679688.507812-3.339844.9375-4.976563.789062-2.648437-.71875-5.441406-3.367188-6.230469-2.652343-.789062-5.441406.71875-6.234375 3.367188-.59375 2.160156-1.019531 4.363281-1.277344 6.589844-.164062 1.316406.203126 2.648437 1.019532 3.695312.820312 1.046875 2.019531 1.726562 3.339844 1.886719zm0 0"/><path d="m388.148438 96.28125c1.609374.816406 3.539062.703125 5.039062-.300781 1.503906-1.003907 2.347656-2.742188 2.210938-4.542969-.140626-1.800781-1.238282-3.386719-2.878907-4.148438-.203125-.101562-20.519531-10.191406-20.519531-29.503906.214844-7.515625 2.808594-14.769531 7.40625-20.71875 4.960938-7.855468 10.582031-16.757812 8.554688-32.585937-.191407-1.804688-1.339844-3.367188-3.007813-4.078125-1.667969-.714844-3.59375-.464844-5.027344.644531-1.433593 1.109375-2.15625 2.910156-1.882812 4.707031 1.574219 12.261719-2.4375 18.613282-7.085938 26-5.617187 7.542969-8.746093 16.648438-8.953125 26.050782-.003906 25.480468 25.074219 37.960937 26.144532 38.476562zm0 0"/></g></svg>