<svg height="411pt" viewBox="-95 0 411 411.03008" width="411pt" xmlns="http://www.w3.org/2000/svg"><path d="m28.058594 82.71875h164.636718c12.71875 0 23.027344 10.308594 23.027344 23.027344v249.851562c0 12.71875-10.308594 23.027344-23.027344 23.027344h-164.636718c-12.71875 0-23.027344-10.308594-23.027344-23.027344v-249.851562c0-12.71875 10.308594-23.027344 23.027344-23.027344zm0 0" fill="#86a138"/><path d="m30.40625 378.621094h159.945312v12.050781c0 8.464844-6.863281 15.332031-15.332031 15.332031h-129.28125c-8.46875 0-15.332031-6.867187-15.332031-15.332031zm0 0" fill="#fff"/><path d="m45.738281 55.339844h129.28125c8.46875 0 15.332031 6.863281 15.332031 15.332031v12.046875h-159.945312v-12.046875c0-8.46875 6.863281-15.332031 15.332031-15.332031zm0 0" fill="#fff"/><path d="m215.726562 197.546875h-58.984374c-10.675782-15-27.949219-23.90625-46.359376-23.90625-18.414062 0-35.6875 8.90625-46.363281 23.90625h-58.988281v66.25h58.984375c10.675781 15 27.949219 23.90625 46.363281 23.90625 18.410156 0 35.683594-8.90625 46.359375-23.90625h58.988281zm0 0" fill="#ffd156"/><path d="m110.378906 6.003906c-12.027344 0-21.78125 9.75-21.78125 21.777344v27.558594h43.566406v-27.554688c0-12.03125-9.753906-21.78125-21.785156-21.78125zm0 0" fill="#fff"/><path d="m195.351562 77.851562v-7.203124c-.015624-11.222657-9.109374-20.316407-20.332031-20.332032h-81.441406v-22.535156c-.285156-6.179688 2.847656-12.019531 8.160156-15.195312 5.308594-3.175782 11.9375-3.175782 17.246094 0 5.308594 3.175781 8.445313 9.015624 8.160156 15.195312 0 2.761719 2.238281 5 5 5s5-2.238281 5-5c.359375-9.800781-4.667969-19.015625-13.101562-24.023438-8.433594-5.011718-18.929688-5.011718-27.363281 0-8.4375 5.007813-13.460938 14.222657-13.101563 24.023438v22.558594h-37.839844c-11.222656.011718-20.316406 9.105468-20.332031 20.332031v7.199219c-14.375 1.382812-25.3554688 13.453125-25.375 27.894531v91.800781c0 2.761719 2.238281 5 5 5s5-2.238281 5-5v-91.820312c.011719-9.953125 8.078125-18.015625 18.03125-18.027344h39.316406c2.761719 0 5-2.238281 5-5s-2.238281-5-5-5h-31.972656v-7.046875c.007812-5.707031 4.628906-10.328125 10.332031-10.332031h129.28125c5.703125.003906 10.324219 4.625 10.332031 10.332031v7.046875h-94.972656c-2.761718 0-5 2.238281-5 5s2.238282 5 5 5h102.316406c9.953126.011719 18.019532 8.074219 18.03125 18.027344v86.800781h-51.480468c-11.726563-15.085937-29.761719-23.90625-48.867188-23.90625-19.105468 0-37.140625 8.820313-48.867187 23.90625h-32.480469c-2.761719 0-5 2.238281-5 5s2.238281 5 5 5h34.984375c1.613281 0 3.128906-.777344 4.066406-2.089844 9.738281-13.683593 25.5-21.8125 42.296875-21.8125s32.558594 8.128907 42.296875 21.8125c.9375 1.3125 2.453125 2.089844 4.066407 2.089844h54v153.054687c-.011719 9.953126-8.078126 18.015626-18.03125 18.027344h-164.648438c-9.953125-.011718-18.019531-8.074218-18.03125-18.027344v-86.800781h51.480469c11.726562 15.082031 29.761719 23.90625 48.867187 23.90625 19.105469 0 37.140625-8.824219 48.867188-23.90625h32.480468c2.761719 0 5-2.238281 5-5s-2.238281-5-5-5h-34.984374c-1.613282 0-3.128907.777344-4.066407 2.089844-9.742187 13.683594-25.5 21.808594-42.296875 21.808594s-32.554687-8.125-42.296875-21.808594c-.9375-1.3125-2.453125-2.089844-4.066406-2.089844h-54v-40.128906c0-2.761719-2.238281-5-5-5s-5 2.238281-5 5v136.929687c.0195312 14.445313 10.996094 26.515626 25.375 27.898438v7.199219c.011719 11.222656 9.109375 20.316406 20.332031 20.332031h129.296875c2.761719 0 5-2.238281 5-5s-2.238281-5-5-5h-129.28125c-5.703125-.007812-10.324219-4.628906-10.332031-10.332031v-7.050781h157.289062c15.472657-.015626 28.015626-12.550782 28.03125-28.027344v-249.875c-.019531-14.441406-11-26.511719-25.375-27.894532zm0 0" fill="#39000c"/><path d="m103.003906 28.578125c0 4.074219 3.300782 7.375 7.375 7.375 4.074219 0 7.375-3.300781 7.375-7.375s-3.300781-7.375-7.375-7.375c-4.070312.003906-7.371094 3.304687-7.375 7.375zm10 0c0 1.449219-1.175781 2.625-2.625 2.625-1.449218 0-2.625-1.175781-2.625-2.625s1.175782-2.625 2.625-2.625c1.449219 0 2.625 1.175781 2.625 2.625zm0 0" fill="#39000c"/><g fill="#fff"><path d="m190.378906 158.753906c-2.761718 0-5 2.238282-5 5v3.601563c0 2.761719 2.238282 5 5 5 2.761719 0 5-2.238281 5-5v-3.601563c0-2.761718-2.238281-5-5-5zm0 0"/><path d="m195.378906 128.003906c-.015625-14.90625-12.09375-26.984375-27-27-2.761718 0-5 2.238282-5 5 0 2.757813 2.238282 5 5 5 9.382813.007813 16.988282 7.613282 17 17v19.75c0 2.761719 2.238282 5 5 5 2.761719 0 5-2.238281 5-5zm0 0"/></g></svg>