<?xml version="1.0" encoding="iso-8859-1"?>
<!-- Generator: Adobe Illustrator 19.0.0, SVG Export Plug-In . SVG Version: 6.00 Build 0)  -->
<svg version="1.1" id="Layer_1" xmlns="http://www.w3.org/2000/svg" xmlns:xlink="http://www.w3.org/1999/xlink" x="0px" y="0px"
	 viewBox="0 0 512 512" style="enable-background:new 0 0 512 512;" xml:space="preserve">
<polygon style="fill:#FF6465;" points="143.868,182.619 76.272,256.001 143.868,329.38 371.714,424.315 371.714,87.684 "/>
<path style="fill:#E65A5B;" d="M48.055,182.619c-21.749,0-39.38,17.63-39.38,39.38V290c0,21.749,17.631,39.38,39.38,39.38h95.813
	v-146.76H48.055z"/>
<path d="M371.714,168.711c-4.791,0-8.676,3.884-8.676,8.676v233.916l-44.498-18.541c-4.423-1.844-9.502,0.248-11.346,4.671
	c-1.844,4.423,0.249,9.503,4.671,11.345l56.511,23.546c1.073,0.448,2.207,0.667,3.336,0.667c1.688,0,3.366-0.493,4.813-1.458
	c2.413-1.609,3.864-4.317,3.864-7.218v-246.93C380.39,172.595,376.505,168.711,371.714,168.711z"/>
<path d="M376.526,80.466c-2.413-1.61-5.471-1.906-8.149-0.79l-226.244,94.268H48.055C21.557,173.944,0,195.502,0,221.999V290
	c0,26.498,21.557,48.055,48.055,48.055h94.078l134.825,56.177c1.091,0.455,2.221,0.67,3.334,0.67c3.397,0,6.624-2.009,8.012-5.341
	c1.843-4.423-0.249-9.503-4.671-11.346l-131.089-54.619v-75.019c0-4.791-3.884-8.676-8.676-8.676c-4.791,0-8.676,3.884-8.676,8.676
	v72.127H48.055c-16.93-0.001-30.704-13.775-30.704-30.705v-68.001c0-16.93,13.774-30.704,30.704-30.704h87.137v22.579
	c0,4.791,3.884,8.676,8.676,8.676c4.791,0,8.676-3.884,8.676-8.676v-25.471l210.494-87.705v41.986c0,4.791,3.884,8.676,8.676,8.676
	c4.791,0,8.676-3.884,8.676-8.676V87.684C380.39,84.783,378.94,82.074,376.526,80.466z"/>
<path style="fill:#C7CFE2;" d="M452.39,134.158c-3.234-2.707-8.103-2.05-10.573,1.37l-11.791,16.322
	c-2.234,3.092-1.692,7.354,1.195,9.846c23.216,20.047,37.401,55.446,37.401,94.304s-14.187,74.258-37.403,94.305
	c-2.887,2.493-3.429,6.754-1.194,9.846l11.792,16.321c2.47,3.419,7.338,4.076,10.573,1.37
	c31.59-26.439,50.934-72.303,50.934-121.841C503.324,206.461,483.979,160.596,452.39,134.158z"/>
<path d="M447.748,388.191c-0.651,0-1.306-0.04-1.958-0.121c-4.399-0.549-8.411-2.923-11.005-6.517l-11.791-16.32
	c-4.892-6.771-3.793-16.011,2.555-21.493c21.539-18.6,34.397-51.399,34.397-87.74s-12.859-69.141-34.396-87.738
	c-6.349-5.481-7.45-14.722-2.556-21.494l11.791-16.32c2.595-3.592,6.605-5.968,11.004-6.517c4.367-0.548,8.803,0.758,12.169,3.573
	l0,0C491.797,155.827,512,203.862,512,256s-20.203,100.173-54.043,128.495C455.096,386.889,451.459,388.191,447.748,388.191z
	 M437.789,356.085l10.197,14.114c29.246-25.199,46.663-67.75,46.663-114.199s-17.417-88.999-46.661-114.199l-10.197,14.115
	c24.759,21.961,39.508,59.263,39.508,100.084C477.297,296.822,462.55,334.124,437.789,356.085z"/>
<g>
</g>
<g>
</g>
<g>
</g>
<g>
</g>
<g>
</g>
<g>
</g>
<g>
</g>
<g>
</g>
<g>
</g>
<g>
</g>
<g>
</g>
<g>
</g>
<g>
</g>
<g>
</g>
<g>
</g>
</svg>
