<svg height="410pt" viewBox="-31 0 410 410.00704" width="410pt" xmlns="http://www.w3.org/2000/svg"><path d="m264.503906 336.027344c-4.515625-3.210938-7.199218-8.410156-7.199218-13.953125v-171.46875c-15.070313 11.492187-34.375 15.890625-52.933594 12.0625-18.558594-3.832031-34.546875-15.511719-43.835938-32.027344-17.4375 7.761719-37.402344 7.492187-54.621094-.746094-6.472656 15.898438-20.316406 27.621094-37.058593 31.398438v91.636719c0 10.453124-8.472657 18.925781-18.925781 18.925781-10.449219 0-18.921876-8.472657-18.921876-18.925781v69.144531c-.003906 5.542969-2.6875 10.738281-7.199218 13.953125-8.113282 5.785156-12.933594 15.132812-12.933594 25.09375v30.238281c0 3.625 1.4375 7.097656 4.003906 9.660156 2.5625 2.558594 6.039063 3.992188 9.664063 3.988281h239.25c7.539062 0 13.644531-6.109374 13.644531-13.644531v-30.234375c0-9.96875-4.816406-19.320312-12.933594-25.101562zm0 0" fill="#ffd156"/><path d="m10.898438 353.964844h265.550781v37.375c0 7.546875-6.117188 13.667968-13.667969 13.667968h-238.214844c-7.546875 0-13.667968-6.121093-13.667968-13.667968zm0 0" fill="#bf9305"/><path d="m217.671875 32.75c-9.144531 0-18.1875 1.921875-26.539063 5.636719-13.601562-24.128907-40.902343-37.113281-68.203124-32.433594-27.300782 4.679687-48.71875 26.011719-53.507813 53.292969-25.234375-5.976563-51.042969 7.433594-60.660156 31.519531-9.621094 24.082031-.148438 51.582031 22.261719 64.632813v97.53125c0 10.453124 8.472656 18.925781 18.921874 18.925781 10.453126 0 18.925782-8.472657 18.925782-18.925781v-91.621094c16.746094-3.777344 30.585937-15.5 37.058594-31.398438 17.21875 8.238282 37.183593 8.507813 54.621093.746094 15.703125 27.800781 49.136719 40.265625 79.207031 29.53125 30.070313-10.734375 48.050782-41.554688 42.601563-73.015625-5.453125-31.460937-32.757813-54.433594-64.6875-54.421875zm0 0" fill="#fff"/><path d="m111.636719 188.085938h2.453125c5.597656 0 10.132812 4.539062 10.132812 10.132812v106.429688c0 5.59375-4.535156 10.128906-10.132812 10.128906h-2.453125c-5.597657 0-10.132813-4.535156-10.132813-10.128906v-106.429688c0-5.59375 4.535156-10.132812 10.132813-10.132812zm0 0" fill="#bf9305"/><path d="m178.347656 188.085938h2.457032c5.59375 0 10.128906 4.539062 10.128906 10.132812v106.429688c0 5.59375-4.535156 10.128906-10.128906 10.128906h-2.457032c-5.597656 0-10.132812-4.535156-10.132812-10.128906v-106.429688c0-5.59375 4.535156-10.132812 10.132812-10.132812zm0 0" fill="#bf9305"/><g fill="#39000c"><path d="m265.28125 315.984375c42.972656-.011719 78.851562-32.78125 82.738281-75.578125s-25.492187-81.496094-67.761719-89.25c-2.71875-.496094-5.328124 1.304688-5.824218 4.027344-.496094 2.71875 1.308594 5.328125 4.027344 5.824218 37.1875 6.820313 63.035156 40.871094 59.605468 78.523438-3.425781 37.648438-34.996094 66.472656-72.804687 66.46875h-2.945313v-152.921875c26.769532-21.808594 33.832032-59.785156 16.699219-89.761719-17.136719-29.976562-53.441406-43.164062-85.820313-31.164062-15.289062-23.558594-43.085937-35.804688-70.785156-31.195313-27.703125 4.613281-50.03125 25.210938-56.859375 52.449219-2.699219-.398438-5.425781-.597656-8.15625-.597656-25.382812-.019532-47.757812 16.648437-55.003906 40.976562-7.246094 24.324219 2.359375 50.519532 23.617187 64.394532v94.75c0 13.214843 10.710938 23.925781 23.921876 23.925781 13.214843 0 23.925781-10.710938 23.925781-23.925781v-87.761719c16.65625-4.988281 30.152343-17.257813 36.699219-33.359375.734374-1.667969.503906-3.601563-.597657-5.050782-1.105469-1.449218-2.910156-2.179687-4.710937-1.914062-1.800782.269531-3.316406 1.492188-3.953125 3.199219-5.839844 14.386719-18.363281 25-33.515625 28.398437-2.28125.511719-3.90625 2.539063-3.90625 4.882813v91.605469c0 7.691406-6.234375 13.925781-13.925782 13.925781-7.6875 0-13.921874-6.234375-13.921874-13.925781v-97.523438c0-1.773438-.945313-3.417969-2.476563-4.316406-20.363281-11.753906-29.003906-36.683594-20.285156-58.519532 8.71875-21.839843 32.152343-33.960937 55.011719-28.460937 1.339843.316406 2.75.066406 3.898437-.691406 1.148437-.753907 1.933594-1.953125 2.171875-3.308594 4.421875-25.203125 24.210938-44.910156 49.433594-49.234375 25.226562-4.320312 50.441406 7.675781 63.003906 29.972656 1.269531 2.238282 4.027344 3.148438 6.378906 2.105469 29.921875-13.242187 64.953125-.355469 79.15625 29.121094 14.207032 29.476562 2.460938 64.910156-26.539062 80.0625-29 15.152343-64.792969 4.5625-80.878906-23.929688-1.269532-2.234375-4.023438-3.144531-6.375-2.109375-7.714844 3.4375-16.066407 5.207032-24.511719 5.203125-2.761719 0-5 2.238281-5 5 0 2.757813 2.238281 5 5 5 8.355469.007813 16.648437-1.484375 24.480469-4.402343 20.265624 31.28125 61.390624 41.355468 93.824218 22.988281v162.1875c.007813 7.152343 3.460938 13.863281 9.28125 18.023437 6.792969 4.851563 10.824219 12.679688 10.832032 21.023438v30.238281c-.003907 4.769531-3.863282 8.636719-8.636719 8.648437h-239.25c-4.773438-.007812-8.640625-3.875-8.644531-8.648437v-30.230469c.007812-8.347656 4.039062-16.179687 10.832031-21.03125 5.824219-4.15625 9.28125-10.867187 9.289062-18.023437v-33.144531c0-2.761719-2.238281-5-5-5s-5 2.238281-5 5v33.144531c-.003906 3.921875-1.902343 7.601562-5.09375 9.878906-9.417969 6.730469-15.015625 17.59375-15.027343 29.167969v30.238281c.011718 10.292969 8.351562 18.632813 18.644531 18.648437h239.25c10.292969-.015624 18.636719-8.355468 18.644531-18.648437v-30.230469c-.011719-11.582031-5.613281-22.445312-15.042969-29.167968-3.191406-2.28125-5.089843-5.960938-5.089843-9.886719v-6.089844zm0 0"/><path d="m241.65625 63.878906c-1.363281-1.175781-3.25-1.53125-4.945312-.925781-1.695313.601563-2.9375 2.070313-3.25 3.839844-.3125 1.773437.351562 3.574219 1.738281 4.722656.417969.351563.828125.710937 1.230469 1.082031 2.039062 1.863282 5.203124 1.71875 7.066406-.320312 1.859375-2.039063 1.71875-5.199219-.320313-7.0625-.5-.457032-1.003906-.898438-1.519531-1.335938zm0 0"/><path d="m244.382812 82.234375c4.152344 6.835937 6.34375 14.679687 6.335938 22.675781 0 2.761719 2.238281 5 5 5s5-2.238281 5-5c.007812-9.832031-2.691406-19.472656-7.796875-27.875-1.433594-2.359375-4.511719-3.109375-6.871094-1.671875s-3.109375 4.511719-1.671875 6.871094zm0 0"/><path d="m114.085938 319.777344c8.355468-.007813 15.128906-6.777344 15.136718-15.132813v-106.4375c-.007812-8.355469-6.78125-15.128906-15.136718-15.136719h-2.449219c-8.355469.011719-15.125 6.78125-15.132813 15.136719v106.441407c.007813 8.355468 6.777344 15.125 15.136719 15.132812zm-7.597657-15.132813v-106.4375c.007813-2.835937 2.3125-5.125 5.148438-5.121093h2.449219c2.832031.003906 5.125 2.292968 5.136718 5.121093v106.441407c-.003906 2.835937-2.300781 5.132812-5.136718 5.132812h-2.449219c-2.835938-.003906-5.132813-2.300781-5.132813-5.132812zm0 0"/><path d="m180.804688 319.777344c8.355468-.007813 15.125-6.777344 15.132812-15.132813v-106.4375c-.007812-8.355469-6.777344-15.128906-15.132812-15.136719h-2.453126c-8.355468.007813-15.128906 6.78125-15.136718 15.136719v106.441407c.007812 8.351562 6.777344 15.125 15.132812 15.132812zm-7.601563-15.132813v-106.4375c0-2.835937 2.296875-5.132812 5.132813-5.136719h2.449218c2.84375-.003906 5.148438 2.296876 5.148438 5.136719v106.441407c0 2.835937-2.300782 5.132812-5.132813 5.132812h-2.453125c-2.835937-.003906-5.128906-2.300781-5.132812-5.132812zm0 0"/><path d="m68.859375 353.964844c0 2.757812 2.238281 5 5 5h165.136719c2.761718 0 5-2.242188 5-5 0-2.761719-2.238282-5-5-5h-165.136719c-2.761719 0-5 2.238281-5 5zm0 0"/><path d="m55.195312 358.964844c2.761719 0 5-2.242188 5-5 0-2.761719-2.238281-5-5-5h-5.847656c-2.761718 0-5 2.238281-5 5 0 2.757812 2.238282 5 5 5zm0 0"/></g></svg>