<svg height="410pt" viewBox="0 -51 410.032 410" width="410pt" xmlns="http://www.w3.org/2000/svg"><path d="m61.398438 241.105469c33.875 20.503906 72.808593 31.128906 112.402343 30.667969 39.59375.460937 78.523438-10.164063 112.398438-30.667969v-205.394531c-33.875-20.503907-72.804688-31.125-112.398438-30.667969-39.59375-.457031-78.527343 10.164062-112.402343 30.667969zm0 0" fill="#61333d"/><path d="m301.734375 20.109375c-8.554687 0-15.496094 6.9375-15.496094 15.496094v205.601562c0 8.558594 6.941407 15.496094 15.496094 15.496094 8.558594 0 15.496094-6.9375 15.496094-15.496094v-205.601562c0-8.558594-6.9375-15.496094-15.496094-15.496094zm0 0" fill="#815c64"/><path d="m45.921875 20.109375c-8.558594 0-15.496094 6.9375-15.496094 15.496094v205.601562c0 8.558594 6.9375 15.496094 15.496094 15.496094 8.554687-.007813 15.484375-6.953125 15.476563-15.507813v-205.601562c-.003907-8.546875-6.929688-15.472656-15.476563-15.484375zm0 0" fill="#815c64"/><path d="m327.519531 226.628906h-10.289062v-176.460937h10.289062c8.359375 0 15.136719 6.773437 15.136719 15.132812v146.1875c.003906 8.359375-6.773438 15.140625-15.136719 15.140625zm0 0" fill="#b39da2"/><path d="m20.136719 50.167969h10.289062v176.460937h-10.289062c-8.359375 0-15.136719-6.773437-15.136719-15.132812v-146.1875c-.003906-8.359375 6.773438-15.140625 15.136719-15.140625zm0 0" fill="#b39da2"/><g fill="#fff"><path d="m342.65625 123.910156v25.429688h28.324219c4.746093 0 8.589843 3.84375 8.589843 8.589844v10.558593c0 2.980469 2.417969 5.398438 5.402344 5.398438h14.632813c2.980469 0 5.398437-2.417969 5.398437-5.398438v-13.304687c0-17.273438-14-31.273438-31.273437-31.273438zm0 0"/><path d="m269.921875 250.183594c-13.089844 6.417968-26.824219 11.421875-40.976563 14.914062l44.761719 37.304688h27.082031zm0 0"/><path d="m77 249.816406-31.078125 52.582032h27.078125l44.988281-37.488282c-14.164062-3.546875-27.90625-8.609375-40.988281-15.09375zm0 0"/><path d="m90.167969 133.398438h-4.769531c-2.761719 0-5 2.238281-5 5 0 2.761718 2.238281 5 5 5h4.757812c2.761719 0 5-2.238282 5-5 0-2.761719-2.238281-5-5-5zm0 0"/></g><path d="m378.726562 119.308594v-21.671875h11.152344c2.761719 0 5-2.238281 5-5 0-2.757813-2.238281-5-5-5h-33.679687c-2.761719 0-5 2.242187-5 5 0 2.761719 2.238281 5 5 5h12.523437v21.273437h-21.070312v-53.601562c-.011719-11.113282-9.019532-20.121094-20.132813-20.132813h-5.289062v-9.574219c.007812-9.785156-6.90625-18.207031-16.503907-20.109374-9.597656-1.898438-19.199218 3.253906-22.921874 12.300781-33.324219-18.496094-70.863282-28.0625-108.972657-27.7695315-38.113281-.2929685-75.652343 9.2734375-108.976562 27.7695315-3.726563-9.042969-13.324219-14.191407-22.917969-12.289063-9.597656 1.898438-16.507812 10.316406-16.503906 20.097656v186.03125h-5.296875c-5.597657-.003906-10.128907-4.539062-10.136719-10.132812v-146.191406c0-2.757813-2.238281-5-5-5s-5 2.242187-5 5v146.1875c.0117188 11.113281 9.019531 20.121094 20.136719 20.132812h5.289062v9.566406c0 9.785157 6.921875 18.203126 16.519531 20.097657 9.601563 1.890625 19.203126-3.273438 22.914063-12.328125 1.695313.976562 3.417969 1.914062 5.15625 2.839844l-28.398437 48.050781c-.914063 1.542969-.929688 3.460937-.039063 5.019531.890625 1.5625 2.546875 2.523438 4.34375 2.523438h27.078125c1.167969 0 2.300781-.410157 3.199219-1.160157l43.058593-35.875c17.871094 4.285157 36.191407 6.433594 54.570313 6.398438 32.449219.136719 64.546875-6.726563 94.105469-20.125l24.082031 40.75h-16.503906l-25.035157-20.859375c-2.128906-1.6875-5.210937-1.371094-6.949218.714844-1.738282 2.085937-1.496094 5.175781.546875 6.964843l26.429687 22c.898438.75 2.03125 1.160157 3.199219 1.160157h27.082031c1.792969 0 3.453125-.964844 4.339844-2.523438.890625-1.558594.875-3.476562-.035156-5.019531l-28.160156-47.636719c1.980468-1.046875 3.9375-2.121094 5.867187-3.222656 3.726563 9.042968 13.324219 14.1875 22.917969 12.289062 9.589844-1.898437 16.503906-10.3125 16.507812-20.089844v-185.996093h5.296875c5.597657.007812 10.128907 4.546875 10.132813 10.140625v146.1875c0 2.761718 2.238281 5 5 5 2.761718 0 5-2.238282 5-5v-82.585938h26.070312c14.503906.015625 26.257813 11.769532 26.273438 26.273438v13.304687c0 .21875-.179688.398438-.398438.398438h-14.632812c-.222656 0-.402344-.179688-.402344-.398438v-10.558593c0-7.511719-6.085938-13.597657-13.597656-13.597657h-4.328125c-2.761719 0-5 2.238281-5 5s2.238281 5 5 5h4.363281c1.988281 0 3.601562 1.609375 3.601562 3.597657v10.558593c0 5.742188 4.65625 10.398438 10.398438 10.398438h14.632812c5.742188 0 10.398438-4.65625 10.398438-10.398438v-13.304687c-.039062-18.085938-13.390625-33.382813-31.304688-35.875zm-322.316406 121.886718c-.109375 5.714844-4.773437 10.289063-10.492187 10.289063s-10.382813-4.574219-10.492188-10.289063v-205.601562c.109375-5.714844 4.773438-10.289062 10.492188-10.289062s10.382812 4.574218 10.492187 10.289062zm255.816406 0c0 5.796876-4.699218 10.496094-10.496093 10.496094s-10.496094-4.699218-10.496094-10.496094v-148.558593c0-2.757813-2.238281-5-5-5s-5 2.242187-5 5v40.761719h-171.234375c-2.761719 0-5 2.238281-5 5 0 2.761718 2.238281 5 5 5h171.238281v94.875c-32.582031 19-69.691406 28.847656-107.410156 28.503906-25.691406.132812-51.199219-4.304688-75.339844-13.09375-2.589843-.957032-5.46875.371094-6.421875 2.960937-.957031 2.589844.371094 5.464844 2.960938 6.421875 4.09375 1.507813 8.25 2.847656 12.441406 4.109375l-36.277344 30.226563h-16.507812l26.625-45.042969c.023437-.035156.019531-.082031.039062-.121094.019532-.039062.085938-.105469.117188-.164062.082031-.234375.144531-.476563.191406-.71875.136719-.347657.234375-.710938.292969-1.082031 0-.21875-.011719-.441407-.042969-.660157 0-.425781-.054688-.847656-.164062-1.257812-.066407-.160157-.140626-.316407-.222657-.46875-.171875-.429688-.402343-.835938-.6875-1.199219-.105469-.128906-.246093-.214844-.367187-.328125-.269532-.316406-.578125-.59375-.917969-.828125-.078125-.046875-.175781-.046875-.257813-.089844-.085937-.039062-.046874-.039062-.070312-.054687-4.398438-2.191407-8.667969-4.597657-12.796875-7.105469v-24.480469h195.816406c2.761719 0 5-2.238281 5-5 0-2.757812-2.238281-5-5-5h-195.828125v-130.796875h195.828125c2.761719 0 5-2.238281 5-5 0-2.761718-2.238281-5-5-5h-195.828125v-24.492187c32.589844-18.996094 69.699219-28.84375 107.417969-28.496094 37.714844-.34375 74.824219 9.5 107.410156 28.496094v29.476562c0 2.757813 2.242188 5 5 5 2.761719 0 5-2.242187 5-5v-32.402343c0-5.796876 4.699219-10.496094 10.496094-10.496094s10.496094 4.699218 10.496094 10.496094zm0 0" fill="#39000c"/></svg>