<?xml version="1.0" encoding="iso-8859-1"?>
<!-- Generator: Adobe Illustrator 19.0.0, SVG Export Plug-In . SVG Version: 6.00 Build 0)  -->
<svg version="1.1" id="Layer_1" xmlns="http://www.w3.org/2000/svg" xmlns:xlink="http://www.w3.org/1999/xlink" x="0px" y="0px"
	 viewBox="0 0 511.997 511.997" style="enable-background:new 0 0 511.997 511.997;" xml:space="preserve">
<g>
	<path style="fill:#B4BBCC;" d="M262.414,262.414c47.182-47.182,123.953-47.182,171.135-0.001l34.497,34.497
		c47.182,47.182,47.182,123.953,0,171.136s-123.953,47.182-171.136,0l-34.497-34.497
		C215.232,386.367,215.232,309.596,262.414,262.414z M423.611,423.611c22.681-22.681,22.681-59.586,0-82.267l-34.497-34.497
		c-22.681-22.681-59.585-22.681-82.265,0l0,0c-22.681,22.681-22.681,59.586,0,82.265l34.497,34.497
		C364.026,446.292,400.931,446.292,423.611,423.611z"/>
	<path style="fill:#B4BBCC;" d="M78.448,249.583l-34.497-34.497c-47.182-47.182-47.182-123.953,0-171.136s123.953-47.182,171.136,0
		l34.497,34.497c47.181,47.181,47.181,123.952-0.001,171.135S125.629,296.764,78.448,249.583z M88.386,170.651l34.497,34.497
		c22.681,22.681,59.585,22.681,82.265,0l0,0c22.681-22.681,22.681-59.586,0-82.265l-34.496-34.498
		c-22.681-22.681-59.586-22.681-82.267,0C65.704,111.066,65.704,147.97,88.386,170.651z"/>
</g>
<path style="opacity:0.1;enable-background:new    ;" d="M306.848,389.114c-22.681-22.681-22.681-59.585,0-82.265l0,0
	c22.681-22.681,59.586-22.681,82.265,0l20.103,20.104c-3.055-9.837-8.455-19.096-16.23-26.873l-70.378-70.378
	c-22.075,4.699-43.082,15.599-60.196,32.713c-17.113,17.113-28.014,38.12-32.712,60.195l70.378,70.378
	c7.775,7.775,17.035,13.176,26.871,16.23L306.848,389.114z"/>
<path style="opacity:0.1;enable-background:new    ;" d="M205.148,122.882c22.681,22.681,22.681,59.585,0,82.265l0,0
	c-22.681,22.681-59.586,22.681-82.265,0l-20.103-20.103c3.055,9.837,8.455,19.096,16.23,26.871l70.378,70.378
	c22.075-4.699,43.082-15.599,60.195-32.712c17.114-17.114,28.014-38.121,32.713-60.196l-70.378-70.378
	c-7.776-7.776-17.035-13.176-26.873-16.23L205.148,122.882z"/>
<path style="fill:#C7CFE2;" d="M143.246,143.245c12.271-12.271,32.165-12.27,44.435,0l181.07,181.07
	c12.27,12.27,12.271,32.164,0,44.435s-32.165,12.27-44.435,0l-181.07-181.07C130.976,175.409,130.975,155.515,143.246,143.245z"/>
<path d="M510.551,363.035c-0.705-4.679-5.065-7.909-9.75-7.197c-4.68,0.704-7.902,5.071-7.197,9.749
	c5.311,35.26-6.504,71.296-31.605,96.398c-43.843,43.842-115.176,43.842-159.018,0l-34.497-34.497
	c-33.184-33.184-41.98-83.388-23.079-125.543l36.56,36.56c-2.992,20.816,3.871,41.703,18.835,56.668l34.497,34.496
	c13.012,13.012,30.1,19.518,47.194,19.517c17.089-0.002,34.183-6.507,47.192-19.516c26.021-26.023,26.021-68.364,0-94.387
	l-34.497-34.495c-14.964-14.964-35.85-21.832-56.668-18.836l-36.56-36.56c42.155-18.901,92.36-10.105,125.544,23.081l34.497,34.496
	c9.004,9.004,16.346,19.357,21.823,30.773c2.046,4.266,7.165,6.068,11.432,4.019c4.267-2.046,6.067-7.165,4.021-11.432
	c-6.315-13.164-14.779-25.102-25.157-35.479l-34.497-34.495c-39.782-39.785-100.784-49.135-150.492-23.792l-9.682-9.682
	c25.342-49.709,15.991-110.709-23.792-150.492l-34.497-34.497c-50.523-50.522-132.73-50.524-183.254,0
	C12.18,63.611-1.578,99.268,0.153,135.718c0.224,4.728,4.227,8.37,8.967,8.153c4.727-0.224,8.377-4.239,8.153-8.966
	c-1.504-31.638,10.434-62.582,32.749-84.897c43.841-43.842,115.175-43.843,159.017,0l34.497,34.497
	c33.184,33.184,41.98,83.389,23.079,125.543l-36.56-36.56c2.992-20.817-3.872-41.704-18.836-56.668l-34.497-34.497
	c-26.021-26.021-68.363-26.02-94.386,0c-12.589,12.59-19.52,29.35-19.52,47.194s6.933,34.604,19.52,47.193l34.497,34.496
	c14.964,14.965,35.848,21.831,56.668,18.836l36.56,36.56c-42.155,18.902-92.361,10.105-125.544-23.081l-34.496-34.496
	c-12.05-12.05-20.992-26.269-26.577-42.263c-1.56-4.468-6.446-6.823-10.915-5.265c-4.468,1.56-6.826,6.447-5.265,10.916
	c6.441,18.448,16.749,34.843,30.637,48.732l34.497,34.496c24.918,24.919,58.158,37.903,91.737,37.903
	c20.032,0,40.182-4.641,58.756-14.11l9.68,9.68c-25.342,49.709-15.991,110.71,23.792,150.494l34.497,34.497
	c25.262,25.26,58.445,37.892,91.627,37.892s66.366-12.632,91.627-37.892C503.048,445.173,516.668,403.651,510.551,363.035z
	 M149.316,181.62c-4.315-4.315-6.693-10.054-6.693-16.158c0-6.103,2.378-11.841,6.693-16.158c4.315-4.317,10.054-6.693,16.158-6.693
	c6.103,0,11.842,2.376,16.158,6.693l181.07,181.07c4.315,4.315,6.693,10.054,6.693,16.158s-2.378,11.841-6.693,16.158
	c-4.317,4.315-10.054,6.693-16.159,6.693c-6.105,0-11.842-2.376-16.158-6.693L149.316,181.62z M383.067,312.907l34.497,34.496
	c19.34,19.34,19.34,50.809,0,70.148c-19.339,19.341-50.808,19.341-70.149-0.001l-34.497-34.495
	c-7.588-7.589-12.359-17.235-13.923-27.518l19.272,19.272c7.552,7.552,17.595,11.712,28.277,11.712s20.723-4.16,28.277-11.712
	c7.553-7.553,11.712-17.595,11.712-28.277s-4.16-20.723-11.712-28.277l-19.274-19.274
	C365.832,300.546,375.478,305.318,383.067,312.907z M128.953,199.088l-34.497-34.497c-9.352-9.351-14.501-21.807-14.501-35.073
	c0-13.267,5.149-25.723,14.5-35.074c19.339-19.341,50.807-19.342,70.149,0l34.497,34.497c7.588,7.588,12.359,17.234,13.923,27.517
	l-19.274-19.274c-7.552-7.552-17.595-11.712-28.277-11.712s-20.723,4.16-28.277,11.712c-7.553,7.553-11.712,17.595-11.712,28.277
	c0,10.682,4.16,20.723,11.712,28.277l19.272,19.272C146.188,211.448,136.54,206.676,128.953,199.088z"/>
<g>
</g>
<g>
</g>
<g>
</g>
<g>
</g>
<g>
</g>
<g>
</g>
<g>
</g>
<g>
</g>
<g>
</g>
<g>
</g>
<g>
</g>
<g>
</g>
<g>
</g>
<g>
</g>
<g>
</g>
</svg>
