<?xml version="1.0" encoding="iso-8859-1"?>
<!-- Generator: Adobe Illustrator 19.0.0, SVG Export Plug-In . SVG Version: 6.00 Build 0)  -->
<svg version="1.1" id="Layer_1" xmlns="http://www.w3.org/2000/svg" xmlns:xlink="http://www.w3.org/1999/xlink" x="0px" y="0px"
	 viewBox="0 0 512 512" style="enable-background:new 0 0 512 512;" xml:space="preserve">
<path style="fill:#6AB2CC;" d="M255.986,432.384l35.317-35.317c-4.2-11.025-18.406-19.139-35.29-19.139
	c-16.904,0-31.125,8.133-35.305,19.177L255.986,432.384L255.986,432.384L255.986,432.384z"/>
<path style="fill:#71BDD9;" d="M328.116,360.254l39.983-39.983c-26.823-31.009-68.032-49.284-112.087-49.284
	c-44.072,0-85.29,18.287-112.112,49.314l39.985,39.985c15.962-20.687,42.83-33.012,72.127-33.012
	C285.293,327.271,312.152,339.585,328.116,360.254z"/>
<path style="fill:#78C9E6;" d="M339.765,250.304c21.518,10.297,40.72,24.696,56.247,42.053l39.839-39.839
	c-20.085-21.834-44.547-39.948-71.789-52.985c-33.126-15.853-70.489-24.232-108.049-24.232c-37.57,0-74.944,8.384-108.078,24.245
	c-27.243,13.041-51.705,31.161-71.787,53l39.84,39.84c15.527-17.365,34.73-31.77,56.25-42.072
	c25.595-12.252,54.564-18.728,83.775-18.728C285.216,231.586,314.178,238.059,339.765,250.304z"/>
<path style="fill:#7DD2F0;" d="M381.07,163.994c31.254,14.956,59.393,35.68,82.652,60.653l39.833-39.833
	c-27.786-29.459-61.202-53.89-98.191-71.59c-45.941-21.986-97.587-33.607-149.354-33.607c-51.781,0-103.44,11.627-149.393,33.625
	c-36.984,17.705-70.395,42.14-98.176,71.599l39.834,39.833c23.257-24.977,51.393-45.705,82.646-60.666
	c38.413-18.387,81.669-28.108,125.09-28.108C299.423,135.901,342.667,145.616,381.07,163.994z"/>
<path d="M255.986,440.827c-2.239,0-4.387-0.889-5.97-2.473l-35.278-35.278c-2.348-2.347-3.101-5.854-1.926-8.958
	c5.578-14.733,22.938-24.632,43.201-24.632c20.228,0,37.58,9.877,43.18,24.577c1.184,3.108,0.432,6.622-1.92,8.975l-35.317,35.318
	C260.373,439.938,258.225,440.827,255.986,440.827z M231.296,395.755l24.69,24.69l24.717-24.718
	c-4.501-5.115-13.266-9.357-24.69-9.357C244.562,386.37,235.788,390.626,231.296,395.755z"/>
<path d="M183.884,368.727c-2.231,0-4.381-0.885-5.97-2.473l-39.985-39.985c-3.129-3.129-3.311-8.143-0.418-11.491
	c11.036-12.768,24.376-23.553,39.648-32.057c4.074-2.268,9.216-0.804,11.483,3.269c2.268,4.074,0.805,9.215-3.269,11.483
	c-11.168,6.218-21.155,13.794-29.778,22.583l27.858,27.858c17.839-18.358,44.268-29.086,72.557-29.086
	c28.271,0,54.69,10.718,72.53,29.059l27.861-27.861c-25.369-25.891-61.506-40.597-100.391-40.597
	c-14.509,0-28.838,2.093-42.588,6.222c-4.467,1.34-9.172-1.192-10.514-5.658s1.192-9.173,5.658-10.514
	c15.325-4.602,31.288-6.935,47.444-6.935c46.593,0,89.775,19.028,118.472,52.204c2.895,3.348,2.714,8.364-0.415,11.493
	l-39.984,39.983c-1.716,1.717-4.092,2.607-6.509,2.456c-2.421-0.155-4.659-1.344-6.143-3.265
	c-14.366-18.598-38.822-29.701-65.422-29.701c-26.616,0-51.08,11.113-65.443,29.728c-1.483,1.922-3.722,3.113-6.144,3.268
	C184.245,368.721,184.065,368.727,183.884,368.727z"/>
<path d="M115.988,300.829c-2.236,0-4.385-0.887-5.97-2.473l-39.84-39.84c-3.2-3.199-3.307-8.353-0.245-11.685
	c21.041-22.882,46.058-41.354,74.356-54.901c34.265-16.403,72.898-25.073,111.724-25.073c32.312,0,65.148,6.163,94.959,17.823
	c4.342,1.699,6.486,6.595,4.788,10.938c-1.699,4.342-6.594,6.486-10.938,4.788c-27.87-10.902-58.579-16.664-88.808-16.664
	c-36.316,0-72.429,8.097-104.433,23.418c-23.527,11.263-45.378,26.818-63.63,45.247l27.853,27.853
	c15.104-15.29,33.198-28.183,52.79-37.562c26.726-12.794,56.956-19.556,87.421-19.556c30.456,0,60.678,6.759,87.397,19.546
	c19.587,9.374,37.682,22.261,52.786,37.546l27.857-27.857c-14.658-14.823-31.362-27.58-49.753-37.982
	c-4.058-2.296-5.488-7.447-3.191-11.506c2.295-4.057,7.447-5.488,11.506-3.191c22.305,12.617,42.307,28.466,59.452,47.104
	c3.064,3.331,2.956,8.486-0.244,11.686l-39.839,39.84c-1.641,1.641-3.885,2.537-6.205,2.47c-2.32-0.064-4.511-1.081-6.057-2.811
	c-14.752-16.492-33.287-30.347-53.599-40.067c-24.458-11.704-52.159-17.891-80.108-17.891c-27.957,0-55.666,6.19-80.13,17.9
	c-20.316,9.727-38.851,23.588-53.601,40.084c-1.547,1.73-3.737,2.747-6.057,2.812C116.144,300.828,116.065,300.829,115.988,300.829z
	"/>
<path d="M48.277,233.118c-2.237,0-4.386-0.888-5.97-2.473L2.473,190.812c-3.229-3.229-3.306-8.441-0.172-11.762
	c24.212-25.676,52.313-47.404,83.522-64.582c4.085-2.249,9.22-0.759,11.468,3.325c2.249,4.085,0.76,9.218-3.325,11.468
	c-27.249,14.998-52.002,33.641-73.68,55.483l27.87,27.87c22.918-23.148,49.497-42.037,79.122-56.219
	c39.545-18.93,84.061-28.935,128.735-28.935c44.663,0,89.168,10.001,128.703,28.919c29.627,14.177,56.209,33.064,79.129,56.207
	l27.871-27.871c-26.088-26.299-56.326-47.765-89.993-63.876c-44.811-21.445-95.196-32.779-145.71-32.779
	c-45.839,0-92.089,9.46-133.749,27.358c-4.282,1.841-9.249-0.141-11.09-4.425c-1.841-4.284,0.141-9.249,4.425-11.09
	c43.749-18.795,92.304-28.729,140.415-28.729c53.022,0,105.927,11.908,152.999,34.434c38.03,18.198,71.905,42.898,100.687,73.413
	c3.134,3.322,3.057,8.534-0.172,11.762l-39.834,39.833c-1.62,1.62-3.823,2.487-6.12,2.472c-2.291-0.041-4.467-1.011-6.028-2.687
	c-22.803-24.483-49.759-44.264-80.119-58.792c-37.273-17.837-79.257-27.266-121.413-27.266c-42.168,0-84.163,9.433-121.445,27.279
	c-30.358,14.533-57.312,34.317-80.113,58.804c-1.561,1.677-3.737,2.648-6.028,2.688C48.377,233.117,48.326,233.118,48.277,233.118z"
	/>
<g>
</g>
<g>
</g>
<g>
</g>
<g>
</g>
<g>
</g>
<g>
</g>
<g>
</g>
<g>
</g>
<g>
</g>
<g>
</g>
<g>
</g>
<g>
</g>
<g>
</g>
<g>
</g>
<g>
</g>
</svg>
