<?xml version="1.0" encoding="iso-8859-1"?>
<!-- Generator: Adobe Illustrator 19.0.0, SVG Export Plug-In . SVG Version: 6.00 Build 0)  -->
<svg version="1.1" id="Layer_1" xmlns="http://www.w3.org/2000/svg" xmlns:xlink="http://www.w3.org/1999/xlink" x="0px" y="0px"
	 viewBox="0 0 512 512" style="enable-background:new 0 0 512 512;" xml:space="preserve">
<path style="fill:#FFE3A6;" d="M403.817,395.646c-45.006,0-81.621-36.615-81.621-81.62c0-45.006,36.615-81.621,81.621-81.621
	c45.005,0,81.62,36.615,81.62,81.621C485.437,359.031,448.821,395.646,403.817,395.646z M403.817,271.755
	c-23.309,0-42.272,18.963-42.272,42.272c0,23.308,18.963,42.27,42.272,42.27c23.308,0,42.27-18.963,42.27-42.27
	C446.086,290.717,427.124,271.755,403.817,271.755z"/>
<path style="fill:#FFDF99;" d="M51.251,200.938v87.968c0,101.77,82.5,184.271,184.271,184.271l0,0
	c101.77,0,184.271-82.5,184.271-184.271v-87.968H51.251z"/>
<path style="opacity:0.1;enable-background:new    ;" d="M111.469,288.907v-87.968H51.251v87.968
	c0,101.77,82.5,184.271,184.271,184.271l0,0c10.255,0,20.31-0.851,30.109-2.462C178.187,456.341,111.469,380.422,111.469,288.907z"
	/>
<path style="fill:#FFE3A6;" d="M26.564,436.148l9.667,23.026c11.14,26.533,37.109,43.794,65.886,43.794h266.809
	c28.777,0,54.746-17.262,65.886-43.794l9.667-23.026H26.564z"/>
<path style="opacity:0.1;enable-background:new    ;" d="M96.45,459.173l-9.667-23.026H26.564l9.667,23.026
	c11.14,26.533,37.109,43.794,65.886,43.794h60.218C133.559,502.969,107.59,485.706,96.45,459.173z"/>
<path d="M196.346,152.863c-2.318,4.416-0.618,9.877,3.799,12.197c1.339,0.703,2.776,1.037,4.191,1.037
	c3.248,0,6.389-1.758,8.004-4.836c15.842-30.175,7.993-47.255,0.402-63.771c-6.624-14.416-12.882-28.032-6.012-54.411
	c1.257-4.827-1.637-9.76-6.465-11.018c-4.826-1.259-9.76,1.637-11.016,6.465c-8.494,32.618,0.141,51.41,7.08,66.508
	C203.139,119.849,208.059,130.555,196.346,152.863z"/>
<path d="M267.482,153.619c-1.902,4.612,0.295,9.893,4.907,11.793c1.127,0.465,2.293,0.684,3.44,0.684
	c3.549,0,6.917-2.106,8.355-5.592c15.108-36.638,7.6-57.44,0.338-77.557c-6.571-18.206-13.367-37.032-6.194-72.102
	c1-4.887-2.152-9.66-7.04-10.66c-4.884-1.002-9.66,2.153-10.66,7.04c-8.191,40.046-0.175,62.259,6.9,81.855
	C274.457,108.274,279.928,123.433,267.482,153.619z"/>
<path d="M307.625,493.936H102.119c-25.207,0-47.8-15.017-57.559-38.259l-4.407-10.497h121.718c4.99,0,9.033-4.044,9.033-9.033
	s-4.043-9.033-9.033-9.033h-34.087c-42.938-33.483-67.499-83.683-67.499-138.207v-78.936h39.8c4.99,0,9.033-4.044,9.033-9.033
	s-4.043-9.033-9.033-9.033H51.252c-4.99,0-9.033,4.044-9.033,9.033v87.968c0,30.866,7.061,60.365,20.989,87.679
	c9.519,18.671,22.195,35.812,37.227,50.529H26.564c-3.025,0-5.847,1.514-7.522,4.032c-1.674,2.518-1.978,5.709-0.806,8.497
	l9.667,23.026c12.582,29.967,41.713,49.331,74.216,49.331h205.506c4.99,0,9.033-4.044,9.033-9.033S312.613,493.936,307.625,493.936z
	"/>
<path d="M390.988,403.741c4.253,0.608,8.544,0.938,12.829,0.938c49.986,0,90.654-40.667,90.654-90.653
	c0-40.579-27.196-76.09-65.645-87.126v-25.961c0-4.988-4.043-9.033-9.033-9.033H136.215c-4.99,0-9.033,4.044-9.033,9.033
	s4.043,9.033,9.033,9.033H410.76v24.013v40.915v14.007c0,21.882-3.965,43.065-11.476,62.752c-0.219,0.382-0.414,0.78-0.578,1.198
	c-4.955,12.635-11.403,24.705-19.162,35.877c-0.249,0.359-0.461,0.735-0.654,1.12c-9.825,13.883-21.762,26.448-35.628,37.261
	H202.821c-4.99,0-9.033,4.044-9.033,9.033s4.043,9.033,9.033,9.033h228.071l-4.407,10.497
	c-9.759,23.241-32.351,38.259-57.558,38.259h-25.17c-4.99,0-9.033,4.044-9.033,9.033s4.043,9.033,9.033,9.033h25.17
	c32.501,0,61.632-19.364,74.214-49.331l9.666-23.026c1.172-2.788,0.868-5.978-0.806-8.497c-1.675-2.518-4.498-4.032-7.522-4.032
	h-73.869C378.006,419.874,384.832,412.052,390.988,403.741z M428.78,292.093c5.229,5.935,8.275,13.656,8.275,21.933
	c0,11.74-6.245,22.228-15.651,28.148C426.037,326.009,428.507,309.269,428.78,292.093z M476.404,314.026
	c0,40.025-32.563,72.587-72.589,72.587c-0.493,0-0.984-0.006-1.477-0.016c1.932-3.286,3.768-6.623,5.497-10.013
	c2.047-4.017,3.929-8.085,5.679-12.194c23.742-4.586,41.604-25.69,41.604-50.366c0-18.811-10.142-35.789-26.295-44.787V245.88
	C456.953,256.221,476.404,283.315,476.404,314.026z"/>
<g>
</g>
<g>
</g>
<g>
</g>
<g>
</g>
<g>
</g>
<g>
</g>
<g>
</g>
<g>
</g>
<g>
</g>
<g>
</g>
<g>
</g>
<g>
</g>
<g>
</g>
<g>
</g>
<g>
</g>
</svg>
