<?xml version="1.0" encoding="iso-8859-1"?>
<!-- Generator: Adobe Illustrator 19.0.0, SVG Export Plug-In . SVG Version: 6.00 Build 0)  -->
<svg version="1.1" id="Layer_1" xmlns="http://www.w3.org/2000/svg" xmlns:xlink="http://www.w3.org/1999/xlink" x="0px" y="0px"
	 viewBox="0 0 512 512" style="enable-background:new 0 0 512 512;" xml:space="preserve">
<path style="fill:#A5EB78;" d="M482.906,143.274c-12.981-23.559-31.38-44.576-54.686-62.467
	C381.884,45.239,320.722,25.65,256.001,25.65c-64.722,0-125.883,19.589-172.22,55.157c-23.306,17.891-41.706,38.908-54.686,62.467
	C15.261,168.38,8.247,195.156,8.247,222.859s7.014,54.48,20.848,79.584c11.958,21.703,28.526,41.241,49.28,58.173L66.873,469.939
	c-1.199,11.39,10.415,19.784,20.855,15.074l145.731-65.754l0,0c7.453,0.53,14.972,0.809,22.541,0.809
	c64.721,0,125.883-19.589,172.218-55.157c23.306-17.891,41.706-38.908,54.686-62.467c13.833-25.106,20.848-51.882,20.848-79.585
	S496.739,168.38,482.906,143.274z"/>
<path style="fill:#FFFFFF;" d="M391.394,316.939C355.563,344.445,307.48,359.592,256,359.592s-99.564-15.147-135.396-42.653
	c-33.456-25.683-51.882-59.094-51.882-94.08s18.426-68.398,51.883-94.08c35.831-27.505,83.915-42.653,135.396-42.653
	c51.479,0,99.563,15.147,135.394,42.653c33.457,25.682,51.883,59.094,51.883,94.08S424.852,291.256,391.394,316.939z"/>
<path style="opacity:0.1;enable-background:new    ;" d="M90.713,244.851c0-34.986,18.426-68.398,51.883-94.08
	c35.831-27.505,83.915-42.653,135.396-42.653c51.479,0,99.563,15.147,135.394,42.653c1.431,1.097,2.821,2.214,4.197,3.339
	c-7.287-9.038-16.041-17.542-26.188-25.33c-35.831-27.505-83.915-42.653-135.394-42.653s-99.564,15.147-135.396,42.653
	c-33.457,25.682-51.883,59.093-51.883,94.08c0,33.491,16.895,65.533,47.686,90.741C99.668,292.834,90.713,269.225,90.713,244.851z"
	/>
<path d="M69.712,364.131L58.671,469.07c-0.875,8.323,2.651,16.218,9.433,21.12c4.041,2.92,8.727,4.411,13.47,4.411
	c3.217,0,6.462-0.687,9.546-2.078l143.845-64.904c7.046,0.456,14.113,0.687,21.036,0.687c58.57,0,113.568-15.269,159.052-44.159
	c3.844-2.442,4.981-7.537,2.54-11.383s-7.537-4.981-11.384-2.54c-42.835,27.207-94.777,41.588-150.209,41.588
	c-7.215,0-14.601-0.265-21.957-0.787c-1.365-0.099-2.73,0.146-3.976,0.709l-145.73,65.754c-3.138,1.416-5.641,0.007-6.571-0.666
	c-0.929-0.672-3.052-2.605-2.692-6.028l11.501-109.322c0.291-2.766-0.833-5.494-2.989-7.253
	c-19.945-16.271-35.849-35.032-47.271-55.763c-13.154-23.872-19.823-49.309-19.823-75.605s6.669-51.733,19.823-75.605
	c12.429-22.557,30.087-42.712,52.485-59.905C133.706,52.874,193.084,33.891,256,33.891s122.294,18.983,167.198,53.451
	c22.398,17.193,40.057,37.347,52.484,59.905c13.155,23.872,19.824,49.309,19.824,75.605s-6.669,51.732-19.823,75.605
	c-10.671,19.364-25.278,37.043-43.415,52.544c-3.461,2.959-3.87,8.164-0.91,11.627c2.957,3.461,8.163,3.87,11.627,0.912
	c19.65-16.795,35.512-36.014,47.143-57.123C504.641,280.079,512,251.964,512,222.853s-7.358-57.226-21.871-83.565
	c-13.534-24.562-32.674-46.441-56.889-65.029c-47.767-36.668-110.712-56.861-177.239-56.861S126.528,37.591,78.76,74.259
	c-24.214,18.587-43.355,40.466-56.888,65.029C7.358,165.626,0,193.741,0,222.853s7.358,57.226,21.871,83.565
	C33.647,327.79,49.728,347.187,69.712,364.131z"/>
<path d="M113.624,145.517c3.316-3.122,3.472-8.341,0.351-11.657c-3.124-3.316-8.341-3.473-11.657-0.351
	c-27.373,25.772-41.842,56.667-41.842,89.344c0,37.608,19.571,73.342,55.108,100.622c37.263,28.605,87.13,44.357,140.416,44.357
	c53.285,0,103.152-15.753,140.415-44.357c35.538-27.28,55.108-63.014,55.108-100.622s-19.571-73.342-55.108-100.622
	C359.152,93.626,309.285,77.874,256,77.874c-46.816,0-90.38,11.865-125.982,34.312c-3.853,2.429-5.007,7.521-2.578,11.374
	c2.43,3.852,7.521,5.007,11.375,2.577c32.965-20.784,73.487-31.77,117.186-31.77c49.674,0,95.974,14.542,130.373,40.947
	c31.377,24.087,48.657,55.176,48.657,87.539s-17.281,63.453-48.657,87.539c-34.398,26.406-80.699,40.947-130.373,40.947
	s-95.976-14.542-130.374-40.947c-31.377-24.086-48.657-55.174-48.657-87.538C76.969,194.836,89.643,168.094,113.624,145.517z"/>
<path d="M255.999,268.933c-11.235,0-21.929-3.655-27.912-9.538c-3.244-3.192-8.467-3.152-11.661,0.097
	c-3.194,3.247-3.15,8.469,0.097,11.662c9.087,8.936,23.844,14.272,39.476,14.272c15.725,0,30.532-5.385,39.61-14.405
	c3.23-3.21,3.248-8.431,0.037-11.662c-3.21-3.23-8.431-3.248-11.662-0.037C278.019,265.249,267.295,268.933,255.999,268.933z"/>
<circle cx="214.061" cy="197.721" r="15.76"/>
<circle cx="298.045" cy="197.721" r="15.76"/>
<g>
</g>
<g>
</g>
<g>
</g>
<g>
</g>
<g>
</g>
<g>
</g>
<g>
</g>
<g>
</g>
<g>
</g>
<g>
</g>
<g>
</g>
<g>
</g>
<g>
</g>
<g>
</g>
<g>
</g>
</svg>
