<svg height="512pt" viewBox="-51 0 512 512.00008" width="512pt" xmlns="http://www.w3.org/2000/svg"><path d="m340.007812 169.992188h-40v-45.351563l-260.007812.351563v337.007812c0 22.089844 17.910156 40 40.003906 40h180.003906c22.089844 0 40-17.910156 40-40 0-13.992188 0-26.011719 0-40.003906h40c33.140626 0 60.003907-26.859375 60.003907-60v-132.003906c0-33.140626-26.859375-60-60.003907-60zm20 192.003906c0 11.050781-8.949218 20-20 20h-40v-172.003906h40c11.050782 0 20 8.949218 20 20zm0 0" fill="#ffc473"/><path d="m280.007812 49.988281c22.089844 0 40 17.910157 40 40 0 22.101563-17.917968 40.003907-40 40.003907h-41c-4.632812 22.820312-24.8125 40-49.003906 40-16.359375 0-30.878906-7.851563-40-20-9.121094 12.148437-23.640625 20-40 20-16.363281 0-30.882812-7.851563-40.003906-20v30c0 16.570312-13.429688 30-30 30s-30-13.429688-30-30v-98.324219c0-15.070313 10.359375-29.03125 25.242188-31.308594 15.558593-2.390625 29.308593 7.167969 33.46875 20.910156.8125-.191406 1.632812-.351562 2.449218-.5-1.617187-7.410156-1.609375-15.429687.453125-23.660156 4.179688-16.761719 17.597657-30.613281 34.25-35.183594 27.789063-7.628906 53.378907 8.121094 61.492188 31.953125 8.789062-14.332031 24.597656-23.890625 42.648437-23.890625 22.972656 0 42.324219 15.488281 48.183594 36.589844 6.289062-4.121094 13.75-6.589844 21.820312-6.589844zm0 0" fill="#ffe9cb"/><path d="m130.003906 431.996094c-5.519531 0-10 4.480468-10 10.003906 0 5.519531 4.480469 10 10 10 5.519532 0 10-4.480469 10-10 0-5.523438-4.480468-10.003906-10-10.003906zm0 0"/><path d="m240.007812 219.992188c-5.523437 0-10 4.480468-10 10v172.003906c0 5.523437 4.476563 10 10 10 5.519532 0 10-4.476563 10-10v-172.003906c0-5.519532-4.480468-10-10-10zm0 0"/><path d="m170.003906 219.992188c-5.523437 0-10 4.480468-10 10v172.003906c0 5.523437 4.476563 10 10 10 5.523438 0 10-4.476563 10-10v-172.003906c0-5.519532-4.476562-10-10-10zm0 0"/><path d="m100.003906 219.992188c-5.523437 0-10 4.480468-10 10v172.003906c0 5.523437 4.476563 10 10 10 5.519532 0 10-4.476563 10-10v-172.003906c0-5.519532-4.476562-10-10-10zm0 0"/><path d="m330.007812 89.988281c0-27.570312-22.429687-50-50-50-5.632812 0-11.195312.96875-16.488281 2.847657-10.074219-19.796876-30.675781-32.847657-53.515625-32.847657-15.382812 0-29.746094 5.726563-40.660156 15.824219-14.195312-20.496094-40.027344-30.695312-66.128906-23.527344-20.039063 5.5-36.253906 22.144532-41.304688 42.394532-.125.507812-.246094 1.015624-.363281 1.523437-7.953125-5.058594-17.730469-7.28125-27.820313-5.730469-19.226562 2.949219-33.726562 20.65625-33.726562 41.195313v98.324219c0 18.605468 12.765625 34.28125 30 38.734374v243.273438c0 27.570312 22.429688 50 50.003906 50h180.003906c27.570313 0 50-22.429688 50-50v-30.003906h30c38.601563 0 70.003907-31.402344 70.003907-70v-132.003906c0-38.597657-31.402344-70-70.003907-70h-30v-30.023438c12.457032-9.375 20-24.199219 20-39.980469zm-40 342.007813h-120.003906c-5.523437 0-10 4.480468-10 10.003906 0 5.519531 4.476563 10 10 10h120.003906v10c0 16.542969-13.457031 30-30 30h-180.003906c-16.542968 0-30.003906-13.457031-30.003906-30v-10h40.003906c5.519532 0 10-4.480469 10-10 0-5.523438-4.480468-10.003906-10-10.003906h-40.003906v-213.269532c17.234375-4.453124 30.003906-20.128906 30.003906-38.734374v-7.976563c8.960938 5.183594 19.230469 7.976563 30 7.976563 15.039063 0 29.109375-5.449219 40-15.246094 10.890625 9.796875 24.960938 15.246094 40 15.246094 25.621094 0 48.234375-16.398438 56.585938-40h33.417968c3.371094 0 6.71875-.347657 10-1.019532zm50-252.003906c27.570313 0 50.003907 22.429687 50.003907 50v132.003906c0 27.570312-22.433594 50-50.003907 50h-30v-20h30c16.542969 0 30-13.457032 30-30v-132.003906c0-16.542969-13.457031-30-30-30h-30v-20zm-30 192.003906v-152.003906h30c5.515626 0 10 4.488281 10 10v132.003906c0 5.515625-4.484374 10-10 10zm-30-252.007813h-41c-4.757812 0-8.855468 3.351563-9.804687 8.015625-3.757813 18.535156-20.246094 31.988282-39.199219 31.988282-12.703125 0-24.367187-5.835938-32-16.003907-1.890625-2.519531-4.855468-3.996093-8-3.996093-3.144531 0-6.109375 1.476562-8 3.996093-7.632812 10.167969-19.296875 16.003907-32 16.003907-12.707031 0-24.371094-5.835938-32.003906-16.003907-2.585938-3.441406-7.078125-4.847656-11.164062-3.484375-4.082032 1.363282-6.835938 5.183594-6.835938 9.488282v30c0 11.027343-8.96875 20-20 20-11.027344 0-20-8.972657-20-20v-98.324219c0-10.75 7.203125-19.960938 16.757812-21.425781 10.097657-1.542969 19.480469 4.339843 22.382813 13.925781 1.53125 5.050781 6.722656 8.042969 11.859375 6.835937 1.960938-.460937 5.804688-.664062 8.484375-4.691406 1.503906-2.257812 2.027344-5.027344 1.445313-7.679688-4.574219-20.917968 7.773437-41.625 27.582031-47.0625 24.164062-6.632812 43.476562 8.199219 49.375 25.527344 1.25 3.671875 4.503906 6.289063 8.359375 6.71875 3.851562.425782 7.601562-1.40625 9.632812-4.710937 7.339844-11.96875 20.101563-19.117188 34.125-19.117188 17.910156 0 33.761719 12.035157 38.546875 29.265625.851563 3.074219 3.125 5.558594 6.113281 6.683594 2.984376 1.125 6.332032.757812 9-.992188 4.949219-3.242187 10.601563-4.957031 16.34375-4.957031 16.539063 0 30 13.460938 30 30.003907 0 16.285156-13.183593 29.996093-30 29.996093zm0 0"/></svg>