<svg height="512pt" viewBox="-53 0 512 512.001" width="512pt" xmlns="http://www.w3.org/2000/svg"><path d="m7.335938 33.972656v444.054688c0 14.621094 11.851562 26.472656 26.472656 26.472656h338.027344c14.621093 0 26.472656-11.851562 26.472656-26.472656v-353.777344l-116.75-116.75h-247.75c-14.621094 0-26.472656 11.851562-26.472656 26.472656zm0 0" fill="#ebeef2"/><path d="m307.386719 32.996094v109.746094c0 11.046874 8.957031 20.003906 20.003906 20.003906h18.585937v341.753906h26.191407c14.621093 0 26.472656-11.851562 26.472656-26.472656v-353.777344zm0 0" fill="#d0d0e0"/><path d="m281.558594 7.5 116.75 116.75h-96.75c-11.046875 0-20-8.953125-20-20.003906zm0 0" fill="#fd7b68"/><path d="m330.132812 424.898438h-254.621093c-11.121094 0-20.136719-9.015626-20.136719-20.136719v-178.882813c0-11.121094 9.015625-20.136718 20.136719-20.136718h254.621093c11.121094 0 20.140626 9.015624 20.140626 20.136718v178.882813c0 11.121093-9.019532 20.136719-20.140626 20.136719zm0 0" fill="#fd7b68"/><path d="m330.132812 205.742188h-32.523437v219.15625h32.523437c11.121094 0 20.140626-9.015626 20.140626-20.136719v-178.882813c0-11.121094-9.019532-20.136718-20.140626-20.136718zm0 0" fill="#ee4646"/><path d="m55.539062 82.515625h151.007813c4.144531 0 7.5-3.355469 7.5-7.5s-3.355469-7.5-7.5-7.5h-151.007813c-4.140624 0-7.5 3.355469-7.5 7.5s3.359376 7.5 7.5 7.5zm0 0"/><path d="m55.539062 131.851562h151.007813c4.144531 0 7.5-3.355468 7.5-7.5 0-4.140624-3.355469-7.5-7.5-7.5h-151.007813c-4.140624 0-7.5 3.359376-7.5 7.5 0 4.144532 3.359376 7.5 7.5 7.5zm0 0"/><path d="m144.871094 268.203125c0-3.566406-4.707032-5.847656-7.558594-5.847656-2.421875 0-4.992188 1.140625-6.558594 4.136719l-34.511718 68.023437c-.570313.996094-.855469 2.136719-.855469 3.136719 0 3.421875 2.28125 5.5625 5.277343 5.5625h35.082032v18.394531c0 3.28125 3.707031 4.992187 7.554687 4.992187 3.710938 0 7.558594-1.710937 7.558594-4.992187v-18.394531h6.988281c2.710938 0 5.136719-3.566406 5.136719-6.988282 0-3.5625-1.710937-7.128906-5.136719-7.128906h-6.988281v-19.683594c0-3.5625-3.847656-4.988281-7.558594-4.988281-3.847656 0-7.554687 1.425781-7.554687 4.988281v19.683594h-20.964844l29.378906-58.613281c.425782-.855469.710938-1.570313.710938-2.28125zm0 0"/><path d="m235.144531 335.65625v-41.5c0-23.101562-14.117187-31.800781-32.085937-31.800781-18.113282 0-31.945313 8.699219-31.945313 31.800781v41.5c0 23.101562 13.832031 31.800781 31.945313 31.800781 17.96875 0 32.085937-8.699219 32.085937-31.800781zm-48.914062 0v-41.5c0-12.550781 6.132812-18.394531 16.828125-18.394531 10.554687 0 16.972656 5.847656 16.972656 18.394531v41.5c0 12.550781-6.417969 18.394531-16.972656 18.394531-10.695313.003907-16.828125-5.84375-16.828125-18.394531zm0 0"/><path d="m292.191406 268.203125c0-3.566406-4.707031-5.847656-7.558594-5.847656-2.425781 0-4.992187 1.140625-6.558593 4.136719l-34.511719 68.023437c-.570312.996094-.855469 2.136719-.855469 3.136719 0 3.421875 2.28125 5.5625 5.277344 5.5625h35.082031v18.394531c0 3.28125 3.707032 4.992187 7.558594 4.992187 3.707031 0 7.558594-1.710937 7.558594-4.992187v-18.394531h6.988281c2.707031 0 5.132813-3.566406 5.132813-6.988282 0-3.5625-1.710938-7.128906-5.132813-7.128906h-6.988281v-19.683594c0-3.5625-3.851563-4.988281-7.558594-4.988281-3.851562 0-7.558594 1.425781-7.558594 4.988281v19.683594h-20.964844l29.378907-58.613281c.425781-.855469.710937-1.570313.710937-2.28125zm0 0"/><path d="m403.777344 118.945312-116.75-116.75c-1.40625-1.40625-3.3125-2.195312-5.304688-2.195312h-247.75c-18.730468 0-33.972656 15.238281-33.972656 33.972656v444.054688c0 18.734375 15.242188 33.972656 33.972656 33.972656h338.027344c18.734375 0 33.972656-15.238281 33.972656-33.972656v-353.777344c0-1.988281-.789062-3.894531-2.195312-5.304688zm-114.554688-93.339843 91.144532 91.144531h-78.640626c-6.894531 0-12.5-5.609375-12.5-12.503906v-78.640625zm101.75 452.421875c0 10.460937-8.507812 18.972656-18.972656 18.972656h-338.027344c-10.460937 0-18.972656-8.511719-18.972656-18.972656v-444.054688c0-10.460937 8.511719-18.972656 18.972656-18.972656h240.25v89.246094c0 15.164062 12.339844 27.503906 27.503906 27.503906h89.246094zm0 0"/><path d="m350.4375 328.890625c-4.144531 0-7.5 3.359375-7.5 7.5v68.371094c0 6.964843-5.671875 12.636719-12.636719 12.636719h-254.625c-6.96875 0-12.636719-5.671876-12.636719-12.636719v-68.371094c0-4.140625-3.359374-7.5-7.5-7.5-4.140624 0-7.5 3.359375-7.5 7.5v68.371094c0 15.238281 12.398438 27.636719 27.636719 27.636719h254.625c15.238281 0 27.636719-12.398438 27.636719-27.636719v-68.371094c0-4.140625-3.359375-7.5-7.5-7.5zm0 0"/><path d="m48.039062 225.878906v75.617188c0 4.140625 3.359376 7.5 7.5 7.5 4.140626 0 7.5-3.359375 7.5-7.5v-75.617188c0-6.96875 5.667969-12.636718 12.636719-12.636718h254.625c6.964844 0 12.636719 5.667968 12.636719 12.636718v75.617188c0 4.140625 3.355469 7.5 7.5 7.5 4.140625 0 7.5-3.359375 7.5-7.5v-75.617188c0-15.238281-12.398438-27.636718-27.636719-27.636718h-254.625c-15.238281 0-27.636719 12.398437-27.636719 27.636718zm0 0"/></svg>