<?xml version="1.0" encoding="utf-8"?>
<!-- Generator: Adobe Illustrator 23.0.0, SVG Export Plug-In . SVG Version: 6.00 Build 0)  -->
<svg version="1.1" id="Layer_1" xmlns="http://www.w3.org/2000/svg" xmlns:xlink="http://www.w3.org/1999/xlink" x="0px" y="0px"
	 viewBox="0 0 512 512" style="enable-background:new 0 0 512 512;" xml:space="preserve">
<style type="text/css">
	.st0{fill:#91DAF5;}
	.st1{fill:#E6E6E6;}
</style>
<path class="st0" d="M478.6,134.1H33.8c-13.9,0-25.1,11.2-25.1,25.1v193.7c0,13.9,11.2,25.1,25.1,25.1h444.7
	c13.9,0,25.1-11.2,25.1-25.1V159.1C503.7,145.3,492.4,134.1,478.6,134.1z"/>
<rect x="44.4" y="169.8" class="st1" width="423.5" height="172.5"/>
<path d="M503.7,185.8c4.7,0,8.6-3.8,8.6-8.6v-18.1c0-18.5-15.1-33.6-33.6-33.6H33.8c-18.5,0-33.6,15.1-33.6,33.6v193.7
	c0,18.5,15.1,33.6,33.6,33.6h444.7c18.5,0,33.6-15.1,33.6-33.6V205.7c0-4.7-3.8-8.6-8.6-8.6s-8.6,3.8-8.6,8.6v147.1
	c0,9.1-7.4,16.5-16.5,16.5H33.8c-9.1,0-16.5-7.4-16.5-16.5V159.1c0-9.1,7.4-16.5,16.5-16.5h444.7c9.1,0,16.5,7.4,16.5,16.5v18.1
	C495.1,182,498.9,185.8,503.7,185.8z"/>
<path d="M224.3,333.7c-4.7,0-8.6,3.8-8.6,8.6s3.8,8.6,8.6,8.6H468c4.7,0,8.6-3.8,8.6-8.6V169.7c0-4.7-3.8-8.6-8.6-8.6H44.4
	c-4.7,0-8.6,3.8-8.6,8.6v172.5c0,4.7,3.8,8.6,8.6,8.6h151.3c4.7,0,8.6-3.8,8.6-8.6s-3.8-8.6-8.6-8.6h-13.1v-26h137.5v26H224.3
	L224.3,333.7L224.3,333.7z M110.1,290.6v-26h34.4v26H110.1z M419.4,290.6v-26h12.5c4.7,0,8.6-3.8,8.6-8.6v-34.6h19v69.1L419.4,290.6
	L419.4,290.6z M423.3,247.4h-34.4v-26h34.4V247.4z M337.3,247.4v-26h34.4v26H337.3L337.3,247.4z M285.8,247.4v-26h34.4v26H285.8
	L285.8,247.4z M234.2,247.4v-26h34.4v26H234.2L234.2,247.4z M182.7,247.4v-26h34.4v26H182.7L182.7,247.4z M131.1,247.4v-26h34.4v26
	H131.1L131.1,247.4z M367.9,204.3v-26h34.4v26H367.9L367.9,204.3z M350.8,204.3h-34.4v-26h34.4V204.3z M299.2,204.3h-34.4v-26h34.4
	V204.3z M247.7,204.3h-34.4v-26h34.4V204.3z M196.1,204.3h-34.4v-26h34.4V204.3z M144.6,204.3h-34.4v-26h34.4L144.6,204.3
	L144.6,204.3z M114,221.4v26H53v-26H114z M93,264.6v26H53v-26H93z M161.7,264.6h34.4v26h-34.4V264.6z M213.2,264.6h34.4v26h-34.4
	V264.6z M264.8,264.6h34.4v26h-34.4V264.6z M316.3,264.6h34.4v26h-34.4V264.6z M367.9,264.6h34.4v26h-34.4V264.6z M423.3,307.7v26
	h-34.4v-26H423.3z M440.4,333.7v-26h19v26H440.4z M459.4,204.3h-40v-26h40V204.3z M93,178.3v26H53v-26H93z M53,307.7h61v26H53V307.7
	z M165.6,333.7h-34.4v-26h34.4V333.7z M337.3,307.7h34.4v26h-34.4V307.7z"/>
</svg>
